{
	"asset":{
		"generator":"Khronos glTF Blender I/O v3.5.30",
		"version":"2.0"
	},
	"scene":0,
	"scenes":[
		{
			"name":"Scene",
			"nodes":[
				25
			]
		}
	],
	"nodes":[
		{
			"mesh":0,
			"name":"ghost1_pac & ghost_0",
			"translation":[
				0,
				2.47955322265625e-05,
				1.049041748046875e-05
			]
		},
		{
			"children":[
				0
			],
			"name":"ghost1",
			"rotation":[
				-0.39619460701942444,
				0,
				0,
				0.9181665778160095
			],
			"scale":[
				0.09498852491378784,
				0.09498852491378784,
				0.09498852491378784
			],
			"translation":[
				-0.9288463592529297,
				37.65394973754883,
				-1.6157346963882446
			]
		},
		{
			"mesh":1,
			"name":"ghost2_pac & ghost_0",
			"translation":[
				0,
				-7.62939453125e-06,
				-7.62939453125e-06
			]
		},
		{
			"children":[
				2
			],
			"name":"ghost2",
			"rotation":[
				-0.39619460701942444,
				0,
				0,
				0.9181665778160095
			],
			"scale":[
				0.09498852491378784,
				0.09498852491378784,
				0.09498852491378784
			],
			"translation":[
				6.745052337646484,
				41.92929458618164,
				-6.149604797363281
			]
		},
		{
			"mesh":2,
			"name":"ghost3_pac & ghost_0",
			"translation":[
				0,
				-2.193450927734375e-05,
				1.239776611328125e-05
			]
		},
		{
			"children":[
				4
			],
			"name":"ghost3",
			"rotation":[
				-0.39619460701942444,
				0,
				0,
				0.9181665778160095
			],
			"scale":[
				0.09498852491378784,
				0.09498852491378784,
				0.09498852491378784
			],
			"translation":[
				0.9171843528747559,
				37.64495849609375,
				-1.6061979532241821
			]
		},
		{
			"mesh":3,
			"name":"ghost4_pac & ghost_0",
			"translation":[
				-3.814697265625e-06,
				6.67572021484375e-06,
				2.288818359375e-05
			]
		},
		{
			"children":[
				6
			],
			"name":"ghost4",
			"rotation":[
				-0.39619460701942444,
				0,
				0,
				0.9181665778160095
			],
			"scale":[
				0.09498852491378784,
				0.09498852491378784,
				0.09498852491378784
			],
			"translation":[
				-3.8833398818969727,
				37.68668746948242,
				-1.6504483222961426
			]
		},
		{
			"mesh":4,
			"name":"pac man machine_automat_0"
		},
		{
			"mesh":5,
			"name":"pacman-controller",
			"translation":[
				0.2019626498222351,
				-11.29030990600586,
				30.48346519470215
			]
		},
		{
			"children":[
				8,
				9
			],
			"name":"pac man machine",
			"rotation":[
				-0.70710688829422,
				0,
				0,
				0.7071066498756409
			]
		},
		{
			"mesh":6,
			"name":"mouth bott_pac & ghost_0",
			"translation":[
				0,
				-2.86102294921875e-06,
				3.62396240234375e-05
			]
		},
		{
			"children":[
				11
			],
			"name":"Object_13",
			"translation":[
				0,
				-0.3170194625854492,
				5.7220458984375e-06
			]
		},
		{
			"children":[
				12
			],
			"name":"mouth bott",
			"translation":[
				0,
				-1.811981201171875e-05,
				-2.47955322265625e-05
			]
		},
		{
			"mesh":7,
			"name":"mouth top_pac & ghost_0",
			"translation":[
				0,
				-2.86102294921875e-06,
				3.62396240234375e-05
			]
		},
		{
			"children":[
				14
			],
			"name":"Object_10",
			"translation":[
				0,
				-0.3170194625854492,
				5.7220458984375e-06
			]
		},
		{
			"children":[
				15
			],
			"name":"mouth top",
			"translation":[
				0,
				-1.811981201171875e-05,
				-2.47955322265625e-05
			]
		},
		{
			"mesh":8,
			"name":"pacman_pac & ghost_0",
			"translation":[
				0,
				-7.62939453125e-06,
				9.5367431640625e-06
			]
		},
		{
			"children":[
				17
			],
			"name":"Object_7",
			"translation":[
				0,
				-0.31705474853515625,
				-2.09808349609375e-05
			]
		},
		{
			"children":[
				13,
				16,
				18
			],
			"name":"pacman",
			"rotation":[
				-0.39619460701942444,
				0,
				0,
				0.9181665778160095
			],
			"scale":[
				0.09498852491378784,
				0.09498852491378784,
				0.09498852491378784
			],
			"translation":[
				7.344834327697754,
				37.744319915771484,
				-1.7350414991378784
			]
		},
		{
			"mesh":9,
			"name":"scheibe_scheibe_0"
		},
		{
			"children":[
				20
			],
			"name":"scheibe",
			"rotation":[
				-0.70710688829422,
				0,
				0,
				0.7071066498756409
			]
		},
		{
			"children":[
				1,
				3,
				5,
				7,
				10,
				19,
				21
			],
			"name":"RootNode"
		},
		{
			"children":[
				22
			],
			"name":"Object_2"
		},
		{
			"children":[
				23
			],
			"name":"ad72bb6817744cbea1b39b136ec1313c.fbx",
			"rotation":[
				0.70710688829422,
				0,
				0,
				0.7071066498756409
			]
		},
		{
			"children":[
				24
			],
			"name":"Sketchfab_model",
			"rotation":[
				-0.70710688829422,
				0,
				0,
				0.7071066498756409
			]
		}
	],
	"animations":[
		{
			"channels":[
				{
					"sampler":0,
					"target":{
						"node":1,
						"path":"translation"
					}
				},
				{
					"sampler":1,
					"target":{
						"node":1,
						"path":"scale"
					}
				},
				{
					"sampler":2,
					"target":{
						"node":1,
						"path":"rotation"
					}
				},
				{
					"sampler":3,
					"target":{
						"node":3,
						"path":"translation"
					}
				},
				{
					"sampler":4,
					"target":{
						"node":3,
						"path":"scale"
					}
				},
				{
					"sampler":5,
					"target":{
						"node":3,
						"path":"rotation"
					}
				},
				{
					"sampler":6,
					"target":{
						"node":5,
						"path":"translation"
					}
				},
				{
					"sampler":7,
					"target":{
						"node":5,
						"path":"scale"
					}
				},
				{
					"sampler":8,
					"target":{
						"node":5,
						"path":"rotation"
					}
				},
				{
					"sampler":9,
					"target":{
						"node":7,
						"path":"translation"
					}
				},
				{
					"sampler":10,
					"target":{
						"node":7,
						"path":"scale"
					}
				},
				{
					"sampler":11,
					"target":{
						"node":7,
						"path":"rotation"
					}
				},
				{
					"sampler":12,
					"target":{
						"node":19,
						"path":"translation"
					}
				},
				{
					"sampler":13,
					"target":{
						"node":19,
						"path":"scale"
					}
				},
				{
					"sampler":14,
					"target":{
						"node":19,
						"path":"rotation"
					}
				},
				{
					"sampler":15,
					"target":{
						"node":13,
						"path":"translation"
					}
				},
				{
					"sampler":16,
					"target":{
						"node":13,
						"path":"scale"
					}
				},
				{
					"sampler":17,
					"target":{
						"node":13,
						"path":"rotation"
					}
				},
				{
					"sampler":18,
					"target":{
						"node":16,
						"path":"translation"
					}
				},
				{
					"sampler":19,
					"target":{
						"node":16,
						"path":"scale"
					}
				},
				{
					"sampler":20,
					"target":{
						"node":16,
						"path":"rotation"
					}
				}
			],
			"name":"pac man",
			"samplers":[
				{
					"input":37,
					"interpolation":"LINEAR",
					"output":38
				},
				{
					"input":37,
					"interpolation":"LINEAR",
					"output":39
				},
				{
					"input":37,
					"interpolation":"LINEAR",
					"output":40
				},
				{
					"input":37,
					"interpolation":"LINEAR",
					"output":41
				},
				{
					"input":37,
					"interpolation":"LINEAR",
					"output":42
				},
				{
					"input":37,
					"interpolation":"LINEAR",
					"output":43
				},
				{
					"input":37,
					"interpolation":"LINEAR",
					"output":44
				},
				{
					"input":37,
					"interpolation":"LINEAR",
					"output":45
				},
				{
					"input":37,
					"interpolation":"LINEAR",
					"output":46
				},
				{
					"input":37,
					"interpolation":"LINEAR",
					"output":47
				},
				{
					"input":37,
					"interpolation":"LINEAR",
					"output":48
				},
				{
					"input":37,
					"interpolation":"LINEAR",
					"output":49
				},
				{
					"input":37,
					"interpolation":"LINEAR",
					"output":50
				},
				{
					"input":37,
					"interpolation":"LINEAR",
					"output":51
				},
				{
					"input":37,
					"interpolation":"LINEAR",
					"output":52
				},
				{
					"input":37,
					"interpolation":"LINEAR",
					"output":53
				},
				{
					"input":37,
					"interpolation":"LINEAR",
					"output":54
				},
				{
					"input":37,
					"interpolation":"LINEAR",
					"output":55
				},
				{
					"input":37,
					"interpolation":"LINEAR",
					"output":56
				},
				{
					"input":37,
					"interpolation":"LINEAR",
					"output":57
				},
				{
					"input":37,
					"interpolation":"LINEAR",
					"output":58
				}
			]
		}
	],
	"materials":[
		{
			"emissiveFactor":[
				1,
				1,
				1
			],
			"emissiveTexture":{
				"index":0
			},
			"name":"pac__ghost",
			"pbrMetallicRoughness":{
				"baseColorTexture":{
					"index":1
				}
			}
		},
		{
			"emissiveFactor":[
				1,
				1,
				1
			],
			"emissiveTexture":{
				"index":2
			},
			"name":"automat",
			"occlusionTexture":{
				"index":3
			},
			"pbrMetallicRoughness":{
				"baseColorTexture":{
					"index":4
				},
				"metallicRoughnessTexture":{
					"index":3
				}
			}
		},
		{
			"alphaMode":"BLEND",
			"name":"scheibe",
			"pbrMetallicRoughness":{
				"baseColorTexture":{
					"index":5
				},
				"metallicRoughnessTexture":{
					"index":6
				}
			}
		}
	],
	"meshes":[
		{
			"name":"ghost1_pac & ghost_0",
			"primitives":[
				{
					"attributes":{
						"POSITION":0,
						"TEXCOORD_0":1,
						"NORMAL":2
					},
					"indices":3,
					"material":0
				}
			]
		},
		{
			"name":"ghost2_pac & ghost_0",
			"primitives":[
				{
					"attributes":{
						"POSITION":4,
						"TEXCOORD_0":5,
						"NORMAL":6
					},
					"indices":3,
					"material":0
				}
			]
		},
		{
			"name":"ghost3_pac & ghost_0",
			"primitives":[
				{
					"attributes":{
						"POSITION":7,
						"TEXCOORD_0":8,
						"NORMAL":9
					},
					"indices":3,
					"material":0
				}
			]
		},
		{
			"name":"ghost4_pac & ghost_0",
			"primitives":[
				{
					"attributes":{
						"POSITION":10,
						"TEXCOORD_0":11,
						"NORMAL":12
					},
					"indices":3,
					"material":0
				}
			]
		},
		{
			"name":"pac man machine_automat_0",
			"primitives":[
				{
					"attributes":{
						"POSITION":13,
						"TEXCOORD_0":14,
						"NORMAL":15
					},
					"indices":16,
					"material":1
				}
			]
		},
		{
			"name":"pac man machine_automat_0.001",
			"primitives":[
				{
					"attributes":{
						"POSITION":17,
						"TEXCOORD_0":18,
						"NORMAL":19
					},
					"indices":20,
					"material":1
				}
			]
		},
		{
			"name":"mouth bott_pac & ghost_0",
			"primitives":[
				{
					"attributes":{
						"POSITION":21,
						"TEXCOORD_0":22,
						"NORMAL":23
					},
					"indices":24,
					"material":0
				}
			]
		},
		{
			"name":"mouth top_pac & ghost_0",
			"primitives":[
				{
					"attributes":{
						"POSITION":25,
						"TEXCOORD_0":26,
						"NORMAL":27
					},
					"indices":28,
					"material":0
				}
			]
		},
		{
			"name":"pacman_pac & ghost_0",
			"primitives":[
				{
					"attributes":{
						"POSITION":29,
						"TEXCOORD_0":30,
						"NORMAL":31
					},
					"indices":32,
					"material":0
				}
			]
		},
		{
			"name":"scheibe_scheibe_0",
			"primitives":[
				{
					"attributes":{
						"POSITION":33,
						"TEXCOORD_0":34,
						"NORMAL":35
					},
					"indices":36,
					"material":2
				}
			]
		}
	],
	"textures":[
		{
			"sampler":0,
			"source":0
		},
		{
			"sampler":0,
			"source":1
		},
		{
			"sampler":0,
			"source":2
		},
		{
			"sampler":0,
			"source":3
		},
		{
			"sampler":0,
			"source":4
		},
		{
			"sampler":0,
			"source":5
		},
		{
			"sampler":0,
			"source":6
		}
	],
	"images":[
		{
			"mimeType":"image/jpeg",
			"name":"pac__ghost_emissive",
			"uri":"textures/pac__ghost_emissive.jpg"
		},
		{
			"mimeType":"image/jpeg",
			"name":"pac__ghost_baseColor",
			"uri":"textures/pac__ghost_baseColor.jpg"
		},
		{
			"mimeType":"image/jpeg",
			"name":"automat_emissive",
			"uri":"textures/automat_emissive.jpg"
		},
		{
			"mimeType":"image/png",
			"name":"automat_metallicRoughness",
			"uri":"textures/automat_metallicRoughness.png"
		},
		{
			"mimeType":"image/jpeg",
			"name":"automat_baseColor",
			"uri":"textures/automat_baseColor.jpg"
		},
		{
			"mimeType":"image/png",
			"name":"scheibe_baseColor",
			"uri":"textures/scheibe_baseColor.png"
		},
		{
			"mimeType":"image/png",
			"name":"scheibe_metallicRoughness",
			"uri":"textures/scheibe_metallicRoughness.png"
		}
	],
	"accessors":[
		{
			"bufferView":0,
			"componentType":5126,
			"count":42,
			"max":[
				4.424685001373291,
				4.084524631500244,
				0
			],
			"min":[
				-2.1449341773986816,
				-3.0659220218658447,
				0
			],
			"type":"VEC3"
		},
		{
			"bufferView":1,
			"componentType":5126,
			"count":42,
			"type":"VEC2"
		},
		{
			"bufferView":2,
			"componentType":5126,
			"count":42,
			"type":"VEC3"
		},
		{
			"bufferView":3,
			"componentType":5123,
			"count":120,
			"type":"SCALAR"
		},
		{
			"bufferView":4,
			"componentType":5126,
			"count":42,
			"max":[
				4.424685001373291,
				4.084524631500244,
				0
			],
			"min":[
				-2.1449341773986816,
				-3.0659220218658447,
				0
			],
			"type":"VEC3"
		},
		{
			"bufferView":5,
			"componentType":5126,
			"count":42,
			"type":"VEC2"
		},
		{
			"bufferView":6,
			"componentType":5126,
			"count":42,
			"type":"VEC3"
		},
		{
			"bufferView":7,
			"componentType":5126,
			"count":42,
			"max":[
				4.424685001373291,
				4.084524631500244,
				0
			],
			"min":[
				-2.1449341773986816,
				-3.0659220218658447,
				0
			],
			"type":"VEC3"
		},
		{
			"bufferView":8,
			"componentType":5126,
			"count":42,
			"type":"VEC2"
		},
		{
			"bufferView":9,
			"componentType":5126,
			"count":42,
			"type":"VEC3"
		},
		{
			"bufferView":10,
			"componentType":5126,
			"count":42,
			"max":[
				4.424685001373291,
				4.084524631500244,
				0
			],
			"min":[
				-2.1449341773986816,
				-3.0659220218658447,
				0
			],
			"type":"VEC3"
		},
		{
			"bufferView":11,
			"componentType":5126,
			"count":42,
			"type":"VEC2"
		},
		{
			"bufferView":12,
			"componentType":5126,
			"count":42,
			"type":"VEC3"
		},
		{
			"bufferView":13,
			"componentType":5126,
			"count":3067,
			"max":[
				13.18897819519043,
				13.262269020080566,
				71.09923553466797
			],
			"min":[
				-13.18897819519043,
				-15.975055694580078,
				0
			],
			"type":"VEC3"
		},
		{
			"bufferView":14,
			"componentType":5126,
			"count":3067,
			"type":"VEC2"
		},
		{
			"bufferView":15,
			"componentType":5126,
			"count":3067,
			"type":"VEC3"
		},
		{
			"bufferView":16,
			"componentType":5123,
			"count":9852,
			"type":"SCALAR"
		},
		{
			"bufferView":17,
			"componentType":5126,
			"count":197,
			"max":[
				0.8029011487960815,
				0.7841548919677734,
				2.327260971069336
			],
			"min":[
				-0.7482653856277466,
				-0.7909431457519531,
				0.0026454925537109375
			],
			"type":"VEC3"
		},
		{
			"bufferView":18,
			"componentType":5126,
			"count":197,
			"type":"VEC2"
		},
		{
			"bufferView":19,
			"componentType":5126,
			"count":197,
			"type":"VEC3"
		},
		{
			"bufferView":20,
			"componentType":5123,
			"count":918,
			"type":"SCALAR"
		},
		{
			"bufferView":21,
			"componentType":5126,
			"count":7,
			"max":[
				2.9802322387695312e-08,
				0.31702035665512085,
				0
			],
			"min":[
				-3.5086112022399902,
				-2.834665536880493,
				0
			],
			"type":"VEC3"
		},
		{
			"bufferView":22,
			"componentType":5126,
			"count":7,
			"type":"VEC2"
		},
		{
			"bufferView":23,
			"componentType":5126,
			"count":7,
			"type":"VEC3"
		},
		{
			"bufferView":24,
			"componentType":5123,
			"count":15,
			"type":"SCALAR"
		},
		{
			"bufferView":25,
			"componentType":5126,
			"count":7,
			"max":[
				2.9802322387695312e-08,
				3.4687066078186035,
				0
			],
			"min":[
				-3.5086112022399902,
				0.31702011823654175,
				0
			],
			"type":"VEC3"
		},
		{
			"bufferView":26,
			"componentType":5126,
			"count":7,
			"type":"VEC2"
		},
		{
			"bufferView":27,
			"componentType":5126,
			"count":7,
			"type":"VEC3"
		},
		{
			"bufferView":28,
			"componentType":5123,
			"count":15,
			"type":"SCALAR"
		},
		{
			"bufferView":29,
			"componentType":5126,
			"count":20,
			"max":[
				3.5086112022399902,
				3.825631618499756,
				0
			],
			"min":[
				-1.5422337055206299,
				-3.1915907859802246,
				0
			],
			"type":"VEC3"
		},
		{
			"bufferView":30,
			"componentType":5126,
			"count":20,
			"type":"VEC2"
		},
		{
			"bufferView":31,
			"componentType":5126,
			"count":20,
			"type":"VEC3"
		},
		{
			"bufferView":32,
			"componentType":5123,
			"count":54,
			"type":"SCALAR"
		},
		{
			"bufferView":33,
			"componentType":5126,
			"count":4,
			"max":[
				7.744738578796387,
				9.025145530700684,
				44.99979019165039
			],
			"min":[
				-7.344390392303467,
				-5.061395645141602,
				31.716270446777344
			],
			"type":"VEC3"
		},
		{
			"bufferView":34,
			"componentType":5126,
			"count":4,
			"type":"VEC2"
		},
		{
			"bufferView":35,
			"componentType":5126,
			"count":4,
			"type":"VEC3"
		},
		{
			"bufferView":36,
			"componentType":5123,
			"count":6,
			"type":"SCALAR"
		},
		{
			"bufferView":37,
			"componentType":5126,
			"count":513,
			"max":[
				21.333333333333332
			],
			"min":[
				0
			],
			"type":"SCALAR"
		},
		{
			"bufferView":38,
			"componentType":5126,
			"count":513,
			"type":"VEC3"
		},
		{
			"bufferView":39,
			"componentType":5126,
			"count":513,
			"type":"VEC3"
		},
		{
			"bufferView":40,
			"componentType":5126,
			"count":513,
			"type":"VEC4"
		},
		{
			"bufferView":41,
			"componentType":5126,
			"count":513,
			"type":"VEC3"
		},
		{
			"bufferView":42,
			"componentType":5126,
			"count":513,
			"type":"VEC3"
		},
		{
			"bufferView":43,
			"componentType":5126,
			"count":513,
			"type":"VEC4"
		},
		{
			"bufferView":44,
			"componentType":5126,
			"count":513,
			"type":"VEC3"
		},
		{
			"bufferView":45,
			"componentType":5126,
			"count":513,
			"type":"VEC3"
		},
		{
			"bufferView":46,
			"componentType":5126,
			"count":513,
			"type":"VEC4"
		},
		{
			"bufferView":47,
			"componentType":5126,
			"count":513,
			"type":"VEC3"
		},
		{
			"bufferView":48,
			"componentType":5126,
			"count":513,
			"type":"VEC3"
		},
		{
			"bufferView":49,
			"componentType":5126,
			"count":513,
			"type":"VEC4"
		},
		{
			"bufferView":50,
			"componentType":5126,
			"count":513,
			"type":"VEC3"
		},
		{
			"bufferView":51,
			"componentType":5126,
			"count":513,
			"type":"VEC3"
		},
		{
			"bufferView":52,
			"componentType":5126,
			"count":513,
			"type":"VEC4"
		},
		{
			"bufferView":53,
			"componentType":5126,
			"count":513,
			"type":"VEC3"
		},
		{
			"bufferView":54,
			"componentType":5126,
			"count":513,
			"type":"VEC3"
		},
		{
			"bufferView":55,
			"componentType":5126,
			"count":513,
			"type":"VEC4"
		},
		{
			"bufferView":56,
			"componentType":5126,
			"count":513,
			"type":"VEC3"
		},
		{
			"bufferView":57,
			"componentType":5126,
			"count":513,
			"type":"VEC3"
		},
		{
			"bufferView":58,
			"componentType":5126,
			"count":513,
			"type":"VEC4"
		}
	],
	"bufferViews":[
		{
			"buffer":0,
			"byteLength":504,
			"byteOffset":0,
			"target":34962
		},
		{
			"buffer":0,
			"byteLength":336,
			"byteOffset":504,
			"target":34962
		},
		{
			"buffer":0,
			"byteLength":504,
			"byteOffset":840,
			"target":34962
		},
		{
			"buffer":0,
			"byteLength":240,
			"byteOffset":1344,
			"target":34963
		},
		{
			"buffer":0,
			"byteLength":504,
			"byteOffset":1584,
			"target":34962
		},
		{
			"buffer":0,
			"byteLength":336,
			"byteOffset":2088,
			"target":34962
		},
		{
			"buffer":0,
			"byteLength":504,
			"byteOffset":2424,
			"target":34962
		},
		{
			"buffer":0,
			"byteLength":504,
			"byteOffset":2928,
			"target":34962
		},
		{
			"buffer":0,
			"byteLength":336,
			"byteOffset":3432,
			"target":34962
		},
		{
			"buffer":0,
			"byteLength":504,
			"byteOffset":3768,
			"target":34962
		},
		{
			"buffer":0,
			"byteLength":504,
			"byteOffset":4272,
			"target":34962
		},
		{
			"buffer":0,
			"byteLength":336,
			"byteOffset":4776,
			"target":34962
		},
		{
			"buffer":0,
			"byteLength":504,
			"byteOffset":5112,
			"target":34962
		},
		{
			"buffer":0,
			"byteLength":36804,
			"byteOffset":5616,
			"target":34962
		},
		{
			"buffer":0,
			"byteLength":24536,
			"byteOffset":42420,
			"target":34962
		},
		{
			"buffer":0,
			"byteLength":36804,
			"byteOffset":66956,
			"target":34962
		},
		{
			"buffer":0,
			"byteLength":19704,
			"byteOffset":103760,
			"target":34963
		},
		{
			"buffer":0,
			"byteLength":2364,
			"byteOffset":123464,
			"target":34962
		},
		{
			"buffer":0,
			"byteLength":1576,
			"byteOffset":125828,
			"target":34962
		},
		{
			"buffer":0,
			"byteLength":2364,
			"byteOffset":127404,
			"target":34962
		},
		{
			"buffer":0,
			"byteLength":1836,
			"byteOffset":129768,
			"target":34963
		},
		{
			"buffer":0,
			"byteLength":84,
			"byteOffset":131604,
			"target":34962
		},
		{
			"buffer":0,
			"byteLength":56,
			"byteOffset":131688,
			"target":34962
		},
		{
			"buffer":0,
			"byteLength":84,
			"byteOffset":131744,
			"target":34962
		},
		{
			"buffer":0,
			"byteLength":30,
			"byteOffset":131828,
			"target":34963
		},
		{
			"buffer":0,
			"byteLength":84,
			"byteOffset":131860,
			"target":34962
		},
		{
			"buffer":0,
			"byteLength":56,
			"byteOffset":131944,
			"target":34962
		},
		{
			"buffer":0,
			"byteLength":84,
			"byteOffset":132000,
			"target":34962
		},
		{
			"buffer":0,
			"byteLength":30,
			"byteOffset":132084,
			"target":34963
		},
		{
			"buffer":0,
			"byteLength":240,
			"byteOffset":132116,
			"target":34962
		},
		{
			"buffer":0,
			"byteLength":160,
			"byteOffset":132356,
			"target":34962
		},
		{
			"buffer":0,
			"byteLength":240,
			"byteOffset":132516,
			"target":34962
		},
		{
			"buffer":0,
			"byteLength":108,
			"byteOffset":132756,
			"target":34963
		},
		{
			"buffer":0,
			"byteLength":48,
			"byteOffset":132864,
			"target":34962
		},
		{
			"buffer":0,
			"byteLength":32,
			"byteOffset":132912,
			"target":34962
		},
		{
			"buffer":0,
			"byteLength":48,
			"byteOffset":132944,
			"target":34962
		},
		{
			"buffer":0,
			"byteLength":12,
			"byteOffset":132992,
			"target":34963
		},
		{
			"buffer":0,
			"byteLength":2052,
			"byteOffset":133004
		},
		{
			"buffer":0,
			"byteLength":6156,
			"byteOffset":135056
		},
		{
			"buffer":0,
			"byteLength":6156,
			"byteOffset":141212
		},
		{
			"buffer":0,
			"byteLength":8208,
			"byteOffset":147368
		},
		{
			"buffer":0,
			"byteLength":6156,
			"byteOffset":155576
		},
		{
			"buffer":0,
			"byteLength":6156,
			"byteOffset":161732
		},
		{
			"buffer":0,
			"byteLength":8208,
			"byteOffset":167888
		},
		{
			"buffer":0,
			"byteLength":6156,
			"byteOffset":176096
		},
		{
			"buffer":0,
			"byteLength":6156,
			"byteOffset":182252
		},
		{
			"buffer":0,
			"byteLength":8208,
			"byteOffset":188408
		},
		{
			"buffer":0,
			"byteLength":6156,
			"byteOffset":196616
		},
		{
			"buffer":0,
			"byteLength":6156,
			"byteOffset":202772
		},
		{
			"buffer":0,
			"byteLength":8208,
			"byteOffset":208928
		},
		{
			"buffer":0,
			"byteLength":6156,
			"byteOffset":217136
		},
		{
			"buffer":0,
			"byteLength":6156,
			"byteOffset":223292
		},
		{
			"buffer":0,
			"byteLength":8208,
			"byteOffset":229448
		},
		{
			"buffer":0,
			"byteLength":6156,
			"byteOffset":237656
		},
		{
			"buffer":0,
			"byteLength":6156,
			"byteOffset":243812
		},
		{
			"buffer":0,
			"byteLength":8208,
			"byteOffset":249968
		},
		{
			"buffer":0,
			"byteLength":6156,
			"byteOffset":258176
		},
		{
			"buffer":0,
			"byteLength":6156,
			"byteOffset":264332
		},
		{
			"buffer":0,
			"byteLength":8208,
			"byteOffset":270488
		}
	],
	"samplers":[
		{
			"magFilter":9729,
			"minFilter":9987
		}
	],
	"buffers":[
		{
			"byteLength":278696,
			"uri":"scene.bin"
		}
	]
}
