{
    "asset" : {
        "generator" : "Khronos glTF Blender I/O v3.4.50",
        "version" : "2.0"
    },
    "extensionsUsed" : [
        "KHR_materials_specular",
        "KHR_materials_ior"
    ],
    "scene" : 0,
    "scenes" : [
        {
            "name" : "Scene",
            "nodes" : [
                10
            ]
        }
    ],
    "nodes" : [
        {
            "mesh" : 0,
            "name" : "BezierCircle",
            "rotation" : [
                0,
                0,
                -0.06792917102575302,
                0.9976901412010193
            ],
            "scale" : [
                0.3485773503780365,
                0.3485773503780365,
                0.3485773801803589
            ],
            "translation" : [
                -0.815687894821167,
                -1.0017741918563843,
                0
            ]
        },
        {
            "mesh" : 1,
            "name" : "BezierCircle.001",
            "rotation" : [
                0,
                0,
                0.10981252044439316,
                0.9939523339271545
            ],
            "scale" : [
                0.36381858587265015,
                0.36381858587265015,
                0.36381858587265015
            ],
            "translation" : [
                -0.20999175310134888,
                -1.0017741918563843,
                0
            ]
        },
        {
            "mesh" : 2,
            "name" : "BezierCircle.002",
            "rotation" : [
                0,
                0,
                -0.1830102950334549,
                0.9831110835075378
            ],
            "scale" : [
                0.36381861567497253,
                0.36381861567497253,
                0.36381858587265015
            ],
            "translation" : [
                0.2900082468986511,
                -1.0017741918563843,
                0
            ]
        },
        {
            "mesh" : 3,
            "name" : "BezierCircle.003",
            "rotation" : [
                0,
                0,
                -0.018834756687283516,
                0.9998226165771484
            ],
            "scale" : [
                0.36381861567497253,
                0.36381861567497253,
                0.36381858587265015
            ],
            "translation" : [
                0.8173497319221497,
                -0.988103449344635,
                0
            ]
        },
        {
            "children" : [
                0,
                1,
                2,
                3
            ],
            "name" : "Ghost Legs"
        },
        {
            "mesh" : 4,
            "name" : "Main Body"
        },
        {
            "children" : [
                4,
                5
            ],
            "name" : "Ghost Body",
            "rotation" : [
                0,
                0,
                1,
                0
            ],
            "scale" : [
                -1,
                -0.7641566395759583,
                -9.445205688476562
            ],
            "translation" : [
                0,
                0.15283136069774628,
                0
            ]
        },
        {
            "mesh" : 5,
            "name" : "Outer Eye",
            "scale" : [
                0.23467741906642914,
                0.41962483525276184,
                0.41962483525276184
            ],
            "translation" : [
                0.10000000149011612,
                0,
                0.008179664611816406
            ]
        },
        {
            "mesh" : 6,
            "name" : "Pupil",
            "scale" : [
                0.06235940754413605,
                0.11150436103343964,
                0.11150436103343964
            ],
            "translation" : [
                0.14000000059604645,
                0,
                0.02182033099234104
            ]
        },
        {
            "children" : [
                7,
                8
            ],
            "name" : "Ghost Eyes",
            "rotation" : [
                0,
                0,
                1,
                0
            ],
            "scale" : [
                -1,
                -0.7641566395759583,
                -9.445205688476562
            ],
            "translation" : [
                0,
                0.15283136069774628,
                0
            ]
        },
        {
            "children" : [
                6,
                9
            ],
            "name" : "Ghost",
            "rotation" : [
                0,
                0,
                1,
                0
            ],
            "scale" : [
                -1,
                -1.308632254600525,
                -0.10587382316589355
            ],
            "translation" : [
                0,
                -0.20000001788139343,
                0
            ]
        }
    ],
    "animations" : [
        {
            "channels" : [
                {
                    "sampler" : 0,
                    "target" : {
                        "node" : 0,
                        "path" : "translation"
                    }
                },
                {
                    "sampler" : 1,
                    "target" : {
                        "node" : 0,
                        "path" : "rotation"
                    }
                }
            ],
            "name" : "BezierCircleAction",
            "samplers" : [
                {
                    "input" : 21,
                    "interpolation" : "LINEAR",
                    "output" : 22
                },
                {
                    "input" : 23,
                    "interpolation" : "LINEAR",
                    "output" : 24
                }
            ]
        },
        {
            "channels" : [
                {
                    "sampler" : 0,
                    "target" : {
                        "node" : 1,
                        "path" : "translation"
                    }
                },
                {
                    "sampler" : 1,
                    "target" : {
                        "node" : 1,
                        "path" : "rotation"
                    }
                }
            ],
            "name" : "BezierCircle.001Action",
            "samplers" : [
                {
                    "input" : 21,
                    "interpolation" : "LINEAR",
                    "output" : 25
                },
                {
                    "input" : 23,
                    "interpolation" : "LINEAR",
                    "output" : 26
                }
            ]
        },
        {
            "channels" : [
                {
                    "sampler" : 0,
                    "target" : {
                        "node" : 2,
                        "path" : "translation"
                    }
                },
                {
                    "sampler" : 1,
                    "target" : {
                        "node" : 2,
                        "path" : "rotation"
                    }
                }
            ],
            "name" : "BezierCircle.002Action",
            "samplers" : [
                {
                    "input" : 21,
                    "interpolation" : "LINEAR",
                    "output" : 27
                },
                {
                    "input" : 23,
                    "interpolation" : "LINEAR",
                    "output" : 28
                }
            ]
        },
        {
            "channels" : [
                {
                    "sampler" : 0,
                    "target" : {
                        "node" : 3,
                        "path" : "translation"
                    }
                },
                {
                    "sampler" : 1,
                    "target" : {
                        "node" : 3,
                        "path" : "rotation"
                    }
                }
            ],
            "name" : "BezierCircle.003Action",
            "samplers" : [
                {
                    "input" : 21,
                    "interpolation" : "LINEAR",
                    "output" : 29
                },
                {
                    "input" : 23,
                    "interpolation" : "LINEAR",
                    "output" : 30
                }
            ]
        }
    ],
    "materials" : [
        {
            "doubleSided" : true,
            "extensions" : {
                "KHR_materials_specular" : {
                    "specularColorFactor" : [
                        0.07372096025322057,
                        0.07372096025322057,
                        0.07372096025322057
                    ]
                },
                "KHR_materials_ior" : {
                    "ior" : 1.4500000476837158
                }
            },
            "name" : "Ghost 1",
            "pbrMetallicRoughness" : {
                "baseColorFactor" : [
                    0.8000000715255737,
                    0.12602509558200836,
                    0.4069272577762604,
                    1
                ],
                "metallicFactor" : 0.02590673603117466,
                "roughnessFactor" : 0.5310880541801453
            }
        },
        {
            "doubleSided" : true,
            "extensions" : {
                "KHR_materials_specular" : {
                    "specularColorFactor" : [
                        0.01843025883554561,
                        0.01843025883554561,
                        0.01843025883554561
                    ]
                },
                "KHR_materials_ior" : {
                    "ior" : 1.4500000476837158
                }
            },
            "name" : "Ghost Eye",
            "pbrMetallicRoughness" : {
                "metallicFactor" : 0,
                "roughnessFactor" : 0.5
            }
        },
        {
            "doubleSided" : true,
            "extensions" : {
                "KHR_materials_specular" : {
                    "specularColorFactor" : [
                        0,
                        0,
                        0
                    ]
                },
                "KHR_materials_ior" : {
                    "ior" : 1.4500000476837158
                }
            },
            "name" : "Ghost Pupil",
            "pbrMetallicRoughness" : {
                "baseColorFactor" : [
                    0,
                    0,
                    0,
                    1
                ],
                "metallicFactor" : 0,
                "roughnessFactor" : 0.5
            }
        }
    ],
    "meshes" : [
        {
            "name" : "Mesh.008",
            "primitives" : [
                {
                    "attributes" : {
                        "POSITION" : 0,
                        "NORMAL" : 1
                    },
                    "indices" : 2,
                    "material" : 0
                }
            ]
        },
        {
            "name" : "Mesh.009",
            "primitives" : [
                {
                    "attributes" : {
                        "POSITION" : 3,
                        "NORMAL" : 4
                    },
                    "indices" : 2,
                    "material" : 0
                }
            ]
        },
        {
            "name" : "Mesh.010",
            "primitives" : [
                {
                    "attributes" : {
                        "POSITION" : 5,
                        "NORMAL" : 6
                    },
                    "indices" : 7,
                    "material" : 0
                }
            ]
        },
        {
            "name" : "Mesh.011",
            "primitives" : [
                {
                    "attributes" : {
                        "POSITION" : 8,
                        "NORMAL" : 9
                    },
                    "indices" : 2,
                    "material" : 0
                }
            ]
        },
        {
            "name" : "Circle",
            "primitives" : [
                {
                    "attributes" : {
                        "POSITION" : 10,
                        "TEXCOORD_0" : 11,
                        "NORMAL" : 12
                    },
                    "indices" : 13,
                    "material" : 0
                }
            ]
        },
        {
            "name" : "Circle.001",
            "primitives" : [
                {
                    "attributes" : {
                        "POSITION" : 14,
                        "TEXCOORD_0" : 15,
                        "NORMAL" : 16
                    },
                    "indices" : 17,
                    "material" : 1
                }
            ]
        },
        {
            "name" : "Circle.002",
            "primitives" : [
                {
                    "attributes" : {
                        "POSITION" : 18,
                        "TEXCOORD_0" : 19,
                        "NORMAL" : 20
                    },
                    "indices" : 17,
                    "material" : 2
                }
            ]
        }
    ],
    "accessors" : [
        {
            "bufferView" : 0,
            "componentType" : 5126,
            "count" : 48,
            "max" : [
                0.511954665184021,
                1,
                0
            ],
            "min" : [
                -0.5131067633628845,
                -1.0485557317733765,
                0
            ],
            "type" : "VEC3"
        },
        {
            "bufferView" : 1,
            "componentType" : 5126,
            "count" : 48,
            "type" : "VEC3"
        },
        {
            "bufferView" : 2,
            "componentType" : 5123,
            "count" : 138,
            "type" : "SCALAR"
        },
        {
            "bufferView" : 3,
            "componentType" : 5126,
            "count" : 48,
            "max" : [
                0.5203214883804321,
                1,
                0
            ],
            "min" : [
                -0.5221379995346069,
                -1.0051974058151245,
                0
            ],
            "type" : "VEC3"
        },
        {
            "bufferView" : 4,
            "componentType" : 5126,
            "count" : 48,
            "type" : "VEC3"
        },
        {
            "bufferView" : 5,
            "componentType" : 5126,
            "count" : 48,
            "max" : [
                0.6332065463066101,
                1,
                0
            ],
            "min" : [
                -0.5108259320259094,
                -1,
                0
            ],
            "type" : "VEC3"
        },
        {
            "bufferView" : 6,
            "componentType" : 5126,
            "count" : 48,
            "type" : "VEC3"
        },
        {
            "bufferView" : 7,
            "componentType" : 5123,
            "count" : 138,
            "type" : "SCALAR"
        },
        {
            "bufferView" : 8,
            "componentType" : 5126,
            "count" : 48,
            "max" : [
                0.511955738067627,
                1,
                0
            ],
            "min" : [
                -0.5131105184555054,
                -1.0485408306121826,
                0
            ],
            "type" : "VEC3"
        },
        {
            "bufferView" : 9,
            "componentType" : 5126,
            "count" : 48,
            "type" : "VEC3"
        },
        {
            "bufferView" : 10,
            "componentType" : 5126,
            "count" : 36,
            "max" : [
                1,
                1,
                0
            ],
            "min" : [
                -1,
                -1.0944514274597168,
                0
            ],
            "type" : "VEC3"
        },
        {
            "bufferView" : 11,
            "componentType" : 5126,
            "count" : 36,
            "type" : "VEC2"
        },
        {
            "bufferView" : 12,
            "componentType" : 5126,
            "count" : 36,
            "type" : "VEC3"
        },
        {
            "bufferView" : 13,
            "componentType" : 5123,
            "count" : 96,
            "type" : "SCALAR"
        },
        {
            "bufferView" : 14,
            "componentType" : 5126,
            "count" : 64,
            "max" : [
                2.743755340576172,
                1,
                0
            ],
            "min" : [
                -2.743755340576172,
                -1,
                0
            ],
            "type" : "VEC3"
        },
        {
            "bufferView" : 15,
            "componentType" : 5126,
            "count" : 64,
            "type" : "VEC2"
        },
        {
            "bufferView" : 16,
            "componentType" : 5126,
            "count" : 64,
            "type" : "VEC3"
        },
        {
            "bufferView" : 17,
            "componentType" : 5123,
            "count" : 180,
            "type" : "SCALAR"
        },
        {
            "bufferView" : 18,
            "componentType" : 5126,
            "count" : 64,
            "max" : [
                8.14074420928955,
                1.4997978210449219,
                0
            ],
            "min" : [
                -8.14074420928955,
                -1.4997978210449219,
                0
            ],
            "type" : "VEC3"
        },
        {
            "bufferView" : 19,
            "componentType" : 5126,
            "count" : 64,
            "type" : "VEC2"
        },
        {
            "bufferView" : 20,
            "componentType" : 5126,
            "count" : 64,
            "type" : "VEC3"
        },
        {
            "bufferView" : 21,
            "componentType" : 5126,
            "count" : 50,
            "max" : [
                2.0833333333333335
            ],
            "min" : [
                0.041666666666666664
            ],
            "type" : "SCALAR"
        },
        {
            "bufferView" : 22,
            "componentType" : 5126,
            "count" : 50,
            "type" : "VEC3"
        },
        {
            "bufferView" : 23,
            "componentType" : 5126,
            "count" : 30,
            "max" : [
                1.25
            ],
            "min" : [
                0.041666666666666664
            ],
            "type" : "SCALAR"
        },
        {
            "bufferView" : 24,
            "componentType" : 5126,
            "count" : 30,
            "type" : "VEC4"
        },
        {
            "bufferView" : 25,
            "componentType" : 5126,
            "count" : 50,
            "type" : "VEC3"
        },
        {
            "bufferView" : 26,
            "componentType" : 5126,
            "count" : 30,
            "type" : "VEC4"
        },
        {
            "bufferView" : 27,
            "componentType" : 5126,
            "count" : 50,
            "type" : "VEC3"
        },
        {
            "bufferView" : 28,
            "componentType" : 5126,
            "count" : 30,
            "type" : "VEC4"
        },
        {
            "bufferView" : 29,
            "componentType" : 5126,
            "count" : 50,
            "type" : "VEC3"
        },
        {
            "bufferView" : 30,
            "componentType" : 5126,
            "count" : 30,
            "type" : "VEC4"
        }
    ],
    "bufferViews" : [
        {
            "buffer" : 0,
            "byteLength" : 576,
            "byteOffset" : 0,
            "target" : 34962
        },
        {
            "buffer" : 0,
            "byteLength" : 576,
            "byteOffset" : 576,
            "target" : 34962
        },
        {
            "buffer" : 0,
            "byteLength" : 276,
            "byteOffset" : 1152,
            "target" : 34963
        },
        {
            "buffer" : 0,
            "byteLength" : 576,
            "byteOffset" : 1428,
            "target" : 34962
        },
        {
            "buffer" : 0,
            "byteLength" : 576,
            "byteOffset" : 2004,
            "target" : 34962
        },
        {
            "buffer" : 0,
            "byteLength" : 576,
            "byteOffset" : 2580,
            "target" : 34962
        },
        {
            "buffer" : 0,
            "byteLength" : 576,
            "byteOffset" : 3156,
            "target" : 34962
        },
        {
            "buffer" : 0,
            "byteLength" : 276,
            "byteOffset" : 3732,
            "target" : 34963
        },
        {
            "buffer" : 0,
            "byteLength" : 576,
            "byteOffset" : 4008,
            "target" : 34962
        },
        {
            "buffer" : 0,
            "byteLength" : 576,
            "byteOffset" : 4584,
            "target" : 34962
        },
        {
            "buffer" : 0,
            "byteLength" : 432,
            "byteOffset" : 5160,
            "target" : 34962
        },
        {
            "buffer" : 0,
            "byteLength" : 288,
            "byteOffset" : 5592,
            "target" : 34962
        },
        {
            "buffer" : 0,
            "byteLength" : 432,
            "byteOffset" : 5880,
            "target" : 34962
        },
        {
            "buffer" : 0,
            "byteLength" : 192,
            "byteOffset" : 6312,
            "target" : 34963
        },
        {
            "buffer" : 0,
            "byteLength" : 768,
            "byteOffset" : 6504,
            "target" : 34962
        },
        {
            "buffer" : 0,
            "byteLength" : 512,
            "byteOffset" : 7272,
            "target" : 34962
        },
        {
            "buffer" : 0,
            "byteLength" : 768,
            "byteOffset" : 7784,
            "target" : 34962
        },
        {
            "buffer" : 0,
            "byteLength" : 360,
            "byteOffset" : 8552,
            "target" : 34963
        },
        {
            "buffer" : 0,
            "byteLength" : 768,
            "byteOffset" : 8912,
            "target" : 34962
        },
        {
            "buffer" : 0,
            "byteLength" : 512,
            "byteOffset" : 9680,
            "target" : 34962
        },
        {
            "buffer" : 0,
            "byteLength" : 768,
            "byteOffset" : 10192,
            "target" : 34962
        },
        {
            "buffer" : 0,
            "byteLength" : 200,
            "byteOffset" : 10960
        },
        {
            "buffer" : 0,
            "byteLength" : 600,
            "byteOffset" : 11160
        },
        {
            "buffer" : 0,
            "byteLength" : 120,
            "byteOffset" : 11760
        },
        {
            "buffer" : 0,
            "byteLength" : 480,
            "byteOffset" : 11880
        },
        {
            "buffer" : 0,
            "byteLength" : 600,
            "byteOffset" : 12360
        },
        {
            "buffer" : 0,
            "byteLength" : 480,
            "byteOffset" : 12960
        },
        {
            "buffer" : 0,
            "byteLength" : 600,
            "byteOffset" : 13440
        },
        {
            "buffer" : 0,
            "byteLength" : 480,
            "byteOffset" : 14040
        },
        {
            "buffer" : 0,
            "byteLength" : 600,
            "byteOffset" : 14520
        },
        {
            "buffer" : 0,
            "byteLength" : 480,
            "byteOffset" : 15120
        }
    ],
    "buffers" : [
        {
            "byteLength" : 15600,
            "uri" : "data:application/octet-stream;base64,"
        }
    ]
}
